<?xml version="1.0" encoding="utf-8"?><svg xmlns="http://www.w3.org/2000/svg" xmlns:xlink="http://www.w3.org/1999/xlink"><symbol viewBox="0 0 10 10" id="arrow-right" xmlns="http://www.w3.org/2000/svg"><path d="M1 4.733h8M5.267 8.467L9 4.733 5.267 1"/></symbol><symbol viewBox="0 0 22 22" id="menu" xmlns="http://www.w3.org/2000/svg"><path d="M4.986 9a3.977 3.977 0 003.986-4c0-2.222-1.771-4-3.986-4A3.977 3.977 0 001 5c0 2.222 1.772 4 3.986 4zM4.986 21a3.977 3.977 0 003.986-4c0-2.222-1.771-4-3.986-4A3.977 3.977 0 001 17c0 2.222 1.772 4 3.986 4zM16.945 9a3.976 3.976 0 003.986-4c0-2.222-1.772-4-3.986-4a3.976 3.976 0 00-3.986 4c0 2.222 1.771 4 3.986 4zM16.945 21a3.976 3.976 0 003.986-4c0-2.222-1.772-4-3.986-4a3.977 3.977 0 00-3.986 4c0 2.222 1.771 4 3.986 4z"/></symbol><symbol viewBox="0 0 10 12" id="shevron-right" xmlns="http://www.w3.org/2000/svg"><path d="M2.491 11l4.983-5-4.983-5"/></symbol></svg>